<?xml version="1.0" encoding="UTF-8"?>
<svg width="160px" height="7px" viewBox="0 0 160 7" version="1.1" xmlns="http://www.w3.org/2000/svg" xmlns:xlink="http://www.w3.org/1999/xlink">
    <title>05</title>
    <g id="Page-1" stroke="none" stroke-width="1" fill="none" fill-rule="evenodd">
        <g id="05" fill="#585858" fill-rule="nonzero">
            <path d="M75.6666664,6.68861065 C74.3414464,6.31354837 72.8411973,5.4133989 70.9658859,3.8506394 C70.5658194,3.52558543 70.1907571,3.25053975 70.1407488,3.25053975 C70.0782385,3.25053975 70.003226,3.61309996 69.9782219,4.05067262 C69.8907073,5.01333247 69.503143,5.80096325 68.8905412,6.21353176 C68.0904084,6.7636231 66.7276821,6.48857743 66.2401011,5.70094665 C65.9400513,5.21336568 65.9400513,4.7882951 66.2401011,4.33822036 C66.6276655,3.73812072 66.9527195,3.58809581 67.6403336,3.67561034 C67.9778897,3.72561864 68.2529354,3.72561864 68.2529354,3.68811241 C68.2529354,3.65060619 68.1654208,3.45057297 68.0654042,3.26304183 C67.6028274,2.35039028 66.3651219,1.8753114 65.1024122,2.11285084 C64.0022295,2.31288406 63.0395697,2.73795464 62.426968,3.28804598 C61.9143828,3.76312487 61.8393704,3.88814563 61.7893621,4.45073905 C61.7268517,5.02583454 61.7518559,5.11334907 62.0644078,5.35088852 C62.5269846,5.71344872 63.1770925,5.71344872 63.4396361,5.35088852 C63.5396527,5.18836153 63.6646735,4.85080548 63.7146818,4.58826188 C63.7896942,4.05067262 63.9022129,3.95065601 64.2522711,4.06317469 C64.4523043,4.12568507 64.5023126,4.25070583 64.5023126,4.76329095 C64.5023126,5.47590928 64.2772752,5.98849439 63.8021963,6.36355667 C63.5396527,6.56358989 63.2896112,6.62610027 62.6645074,6.62610027 C61.939387,6.62610027 61.8143662,6.58859404 61.5018143,6.26354006 C61.276777,6.0385027 61.0517396,5.61343211 60.9267188,5.13835323 C60.8016981,4.72578472 60.6391711,4.37572659 60.5516566,4.37572659 C60.4766441,4.37572659 59.639005,4.76329095 58.7138514,5.23836983 C55.7633615,6.72611688 56.1634279,6.67610857 47.6870204,6.67610857 C40.7483682,6.6636065 40.385808,6.65110442 39.3106295,6.4010629 C37.9979115,6.088511 36.597679,5.61343211 34.6848614,4.8383034 C33.3221351,4.27570998 31.821886,3.88814563 31.659359,4.05067262 C31.5468403,4.15068922 31.7593756,4.51324943 32.0094171,4.65077226 C32.1094337,4.70078057 32.3969815,4.82580133 32.6595251,4.92581794 C33.0595915,5.08834492 33.1221019,5.16335738 33.1221019,5.50091343 C33.1221019,5.78846118 33.0470894,5.91348194 32.8470562,5.98849439 C32.2344545,6.21353176 31.2717946,5.66344042 30.3716452,4.57575981 C29.8965663,3.98816224 29.7590434,3.90064771 29.4964998,3.96315808 C28.9464085,4.08817884 28.1087694,4.48824528 27.721205,4.81329925 C27.5211718,4.98832832 27.2586282,5.12585115 27.1336075,5.12585115 C27.0085867,5.12585115 26.6585286,4.87580963 26.3334746,4.56325773 L25.7583791,3.98816224 L14.4690045,4.02566846 C2.82957178,4.06317469 1.5168538,4.02566846 0.404169035,3.55058958 C-0.0334036238,3.37556051 -0.133420232,3.07551069 0.191633744,2.95048993 C0.304152428,2.9129837 5.24247244,2.87547747 11.1684565,2.87547747 C17.1069425,2.87547747 22.8203913,2.83797125 23.8830677,2.80046502 L25.8083874,2.71295049 L26.2584622,2.2378716 C26.5085037,1.96282593 26.8210556,1.75029064 26.9460763,1.75029064 C27.0835992,1.75029064 27.3961511,1.9253197 27.6461926,2.12535292 C28.2837985,2.65044011 29.0964334,3.00049823 29.7090351,3.00049823 C30.1966161,3.00049823 30.2591265,2.95048993 30.6341887,2.42540274 C31.8593922,0.637605875 34.7473717,0.850141166 39.6981938,3.10051484 C41.2609533,3.8006311 41.6860239,3.91314978 42.523663,3.8006311 L43.1237627,3.71311657 L42.848717,3.26304183 C42.2486173,2.31288406 42.6111775,0.737622483 43.4988249,0.375062279 C43.8113768,0.237539444 43.9739038,0.25004152 44.4239786,0.425070583 C45.4491488,0.812634939 45.7491986,1.78779686 45.1991073,2.9129837 C45.0240782,3.28804598 44.8740533,3.67561034 44.8740533,3.78812902 C44.8740533,4.07567677 45.9242277,4.82580133 46.6743522,5.07584285 C47.5745017,5.37589267 48.937228,5.26337399 50.1249252,4.7882951 C51.250112,4.32571829 51.3751328,4.07567677 50.6000041,3.87564355 C48.9247259,3.45057297 48.2496138,2.87547747 48.2496138,1.8753114 C48.2496138,1.06267646 49.099755,0.25004152 49.9373941,0.25004152 C50.6750165,0.25004152 51.5626639,0.875145318 51.4751494,1.33772213 C51.4251411,1.57526157 51.2001037,1.60026573 50.099921,1.43773874 C49.5373276,1.35022421 49.5123235,1.36272628 49.4248089,1.67527818 C49.3247923,2.11285084 49.6873525,2.72545256 50.249946,3.01300031 C51.075083,3.46307505 52.1252574,3.28804598 54.7881995,2.30038198 C56.7510255,1.5627595 59.6014988,0.725120407 61.2517728,0.375062279 C65.5399849,-0.500083039 68.0028938,0.212535292 71.9410478,3.50058127 C74.3414464,5.50091343 75.2916041,5.93848609 77.0043886,5.83846948 C78.8671979,5.73845287 79.9548785,5.00083039 78.7671813,4.65077226 C78.1170733,4.45073905 77.7170069,4.113183 77.1419114,3.26304183 C76.4542972,2.25037368 75.8416955,1.75029064 75.3166083,1.75029064 C74.8415294,1.75029064 74.7415128,1.90031555 74.9040398,2.43790482 C75.1415792,3.26304183 74.7040066,3.87564355 73.9038737,3.87564355 C73.0912388,3.87564355 72.628662,3.32555221 72.628662,2.35039028 C72.641164,1.10018269 73.628828,0.25004152 75.0915709,0.25004152 C75.9167079,0.25004152 77.1169072,0.575095495 77.8420276,1.00016608 L78.2420941,1.23770552 L79.217256,0.800132863 C79.7548453,0.575095495 80.3174387,0.375062279 80.4674636,0.375062279 C80.6174885,0.375062279 81.1175715,0.562593419 81.5676463,0.800132863 L82.3927833,1.22520345 L83.2929328,0.837639091 C85.0057172,0.112518684 86.9310369,0.25004152 87.6811614,1.13768891 C88.431286,2.02533631 88.3812777,3.27554391 87.5936469,3.75062279 C86.5434725,4.38822867 85.630821,3.60059788 85.968377,2.35039028 C86.0933978,1.8753114 86.0933978,1.8753114 85.7308376,1.8753114 C85.2057504,1.8753114 84.9432068,2.05034046 83.8555262,3.07551069 C83.0803975,3.81313317 82.3677791,4.35072244 81.4051193,4.95082209 C81.3801151,4.97582624 81.3926172,5.100847 81.4426255,5.25087191 C81.5676463,5.63843627 82.4302895,6.00099647 83.2804307,6.00099647 C84.6181528,6.00099647 86.1559082,5.21336568 88.9813773,3.07551069 C91.2192489,1.38773043 91.6943278,1.11268476 93.5821413,0.437572659 C94.6698219,0.0375062279 94.9073614,0 96.1200627,0 C99.3831046,0 101.733495,0.550091343 107.822006,2.75045672 C109.259745,3.26304183 110.109886,3.31305013 110.55996,2.88797955 C110.922521,2.53792142 110.997533,1.95032385 110.709985,1.55025742 C110.572463,1.36272628 110.372429,1.31271798 109.797334,1.31271798 C109.184732,1.31271798 109.072213,1.27521175 109.034707,1.07517853 C108.959695,0.700116255 109.359761,0.500083039 110.122388,0.500083039 C111.697649,0.500083039 112.472778,1.81280102 111.610135,3.03800446 C111.297583,3.47557712 110.759994,3.75062279 109.884848,3.93815393 L109.197234,4.07567677 L109.822338,4.4757432 C111.810168,5.76345703 114.310583,5.83846948 115.635803,4.65077226 L116.173393,4.17569338 L115.710816,3.73812072 C115.448272,3.50058127 115.160724,3.16302522 115.060708,2.97549408 C114.823168,2.51291727 114.83567,1.67527818 115.098214,1.23770552 C115.310749,0.875145318 115.935853,0.500083039 116.323418,0.500083039 C116.623467,0.500083039 117.161057,0.812634939 117.511115,1.18769722 C117.798662,1.50024912 117.823667,1.6127678 117.811165,2.63793803 C117.78616,3.73812072 117.798662,3.75062279 118.08621,3.75062279 C118.561289,3.75062279 119.861505,3.27554391 120.824165,2.76295879 C122.324414,1.95032385 123.362086,1.6127678 125.01236,1.37522836 C126.750149,1.12518684 128.650464,1.65027403 129.563116,2.61293388 C130.088203,3.15052315 130.563282,3.12551899 131.625958,2.5004152 C132.088535,2.22536952 132.626125,2.00033216 132.813656,2.00033216 C133.001187,2.00033216 133.513772,2.22536952 133.963847,2.48791312 C134.601453,2.87547747 134.964013,3.00049823 135.614121,3.07551069 C136.076698,3.12551899 141.727636,3.13802107 148.166205,3.10051484 L159.893152,3.03800446 L159.968165,3.46307505 C160.018173,3.70061449 160.005671,3.92565186 159.955663,3.97566016 C159.905654,4.02566846 154.629778,4.06317469 148.228715,4.06317469 C136.21422,4.06317469 135.114038,4.10068092 133.851328,4.57575981 C132.851162,4.95082209 132.551112,4.95082209 132.001021,4.51324943 C131.338411,3.97566016 130.688303,3.71311657 130.325743,3.83813733 C130.163216,3.88814563 129.850664,4.22570168 129.613124,4.56325773 C129.063033,5.40089682 128.475435,5.68844457 127.312742,5.68844457 C126.375087,5.68844457 126.012526,5.52591758 126.012526,5.11334907 C126.012526,4.88831171 126.087539,4.87580963 126.887672,4.95082209 C127.862834,5.0508387 128.387921,4.90081378 128.700473,4.4257349 C128.950514,4.02566846 128.938012,3.78812902 128.637962,3.68811241 C128.187888,3.55058958 126.57512,3.86314148 125.137381,4.37572659 C120.911679,5.88847779 116.173393,6.67610857 111.197566,6.67610857 C106.709321,6.68861065 104.633976,6.30104629 101.608474,4.86330756 C100.433279,4.31321621 99.6831544,4.02566846 99.6081419,4.10068092 C99.5456315,4.1631913 99.4456149,4.5257515 99.3956066,4.91331586 C99.3455983,5.28837814 99.2080755,5.73845287 99.1080589,5.90097986 C98.795507,6.37605875 98.0703866,6.6636065 97.4077765,6.58859404 C96.7201624,6.51358158 96.2700876,6.18852761 95.9575357,5.56342381 C95.6824901,5.00083039 95.7950087,4.71328264 96.2950918,4.65077226 C96.5701375,4.61326604 96.6826561,4.70078057 96.8951914,5.06334077 C97.2702537,5.70094665 97.5327973,5.80096325 97.9328637,5.48841135 C98.4954572,5.03833662 98.5829717,4.00066431 98.0953907,3.36305844 C97.9078596,3.11301692 96.6326478,2.2878799 96.170071,2.11285084 C94.2447513,1.38773043 92.1569046,2.05034046 91.8193486,3.51308335 L91.7318341,3.8506394 L92.6694898,3.82563525 C93.8321828,3.81313317 94.1322326,4.01316639 94.1322326,4.82580133 C94.1322326,5.45090513 93.69466,6.06350685 93.044552,6.32605044 C91.6818257,6.90114594 90.4191161,5.96349024 90.1940787,4.18819545 C90.1440704,3.78812902 90.0565559,3.50058127 89.9690413,3.50058127 C89.7940123,3.50058127 89.2064147,3.90064771 87.8186843,4.93832001 C86.618485,5.83846948 85.3432732,6.43856913 84.1180698,6.70111272 C82.9428746,6.93865217 82.4302895,6.86363971 81.1550778,6.21353176 L80.1174055,5.68844457 L79.717339,5.92598401 C78.1545795,6.83863556 76.9793844,7.06367293 75.6666664,6.68861065 Z M45.3741363,5.57592589 C45.3741363,5.33838644 45.2241114,5.18836153 44.6990242,4.88831171 C43.9614017,4.46324112 43.511327,4.41323282 42.3236298,4.63827019 C41.198443,4.8383034 39.5356668,4.41323282 36.2476209,3.05050654 C35.0349195,2.5504235 34.6473551,2.45040689 33.797214,2.40039859 C33.1971143,2.36289236 32.5970147,2.40039859 32.3344711,2.48791312 C31.8718943,2.63793803 31.5343382,2.95048993 31.659359,3.08801277 C31.7093673,3.12551899 32.2844628,3.28804598 32.9595749,3.45057297 C33.634687,3.61309996 35.2099486,4.08817884 36.4476541,4.50074735 C39.6606876,5.55092173 41.2234471,5.86347363 43.5363312,5.86347363 L45.3741363,5.87597571 L45.3741363,5.57592589 Z M54.6256726,5.67594249 C56.2759466,5.36339059 57.6511749,4.81329925 60.4016317,3.36305844 C63.8772088,1.53775535 64.077242,1.45024081 65.3524537,1.47524497 C65.9150472,1.47524497 66.5026447,1.52525327 66.6276655,1.5627595 C66.9527195,1.66277611 66.9527195,1.42523666 66.6276655,1.2502076 C66.4901427,1.17519514 65.9275492,1.05017438 65.3774579,0.975161926 C63.1145821,0.662610027 60.8267022,1.27521175 55.6508428,3.61309996 C54.2631123,4.23820376 52.6503445,4.90081378 52.0877511,5.07584285 C50.8875518,5.45090513 50.7250248,5.52591758 50.6500124,5.7259508 C50.5749999,5.95098817 53.375465,5.91348194 54.6256726,5.67594249 Z M109.384765,5.63843627 C109.384765,5.48841135 109.272247,5.36339059 109.10972,5.30088021 C108.947193,5.26337399 107.359429,4.57575981 105.571632,3.78812902 C101.433445,1.95032385 100.833345,1.71278441 99.3831046,1.33772213 C97.7953409,0.912651546 97.2202454,0.837639091 96.6326478,0.937655698 C95.9200295,1.06267646 96.007544,1.3002159 96.8701873,1.62526988 C97.2827558,1.77529479 97.9953741,2.12535292 98.470453,2.40039859 C100.408275,3.5380875 103.296254,4.87580963 104.821508,5.33838644 C105.871682,5.66344042 107.134392,5.85097156 108.297085,5.86347363 C109.297251,5.87597571 109.384765,5.85097156 109.384765,5.63843627 Z M118.073708,5.62593419 C119.573957,5.43840305 121.736816,4.88831171 123.912178,4.12568507 C124.899842,3.77562695 126.237564,3.41306674 126.887672,3.30054806 C128.212892,3.07551069 128.612958,2.85047332 128.20039,2.5504235 C127.887838,2.31288406 127.187722,2.12535292 126.63763,2.12535292 C125.97502,2.12535292 125.062369,2.38789651 122.761987,3.25053975 C120.486609,4.10068092 118.998862,4.50074735 118.098712,4.50074735 C117.348588,4.50074735 116.76099,4.7382868 116.410932,5.18836153 C116.010866,5.68844457 116.060874,5.87597571 116.548455,5.81346533 C116.76099,5.7759591 117.461106,5.70094665 118.073708,5.62593419 Z M133.163714,3.78812902 C133.451262,3.52558543 133.451262,3.28804598 133.13871,3.12551899 C132.83866,2.96299201 132.263564,3.08801277 132.263564,3.32555221 C132.263564,3.50058127 132.688635,4.00066431 132.851162,4.00066431 C132.888668,4.00066431 133.038693,3.91314978 133.163714,3.78812902 Z M27.8087196,3.57559373 C28.0087528,3.42556882 28.0212549,3.37556051 27.883732,3.20053145 C27.6711967,2.95048993 27.0710971,2.93798785 26.8710639,3.18802937 C26.5210058,3.61309996 27.3086365,3.95065601 27.8087196,3.57559373 Z M116.823501,3.11301692 C116.961023,2.70044841 116.773492,2.01283423 116.498447,1.86280932 C116.073376,1.63777195 115.885845,1.81280102 115.885845,2.42540274 C115.885845,2.8629754 115.948355,3.02550239 116.160891,3.1755273 C116.535953,3.45057297 116.723484,3.42556882 116.823501,3.11301692 Z M44.2489495,2.73795464 C44.3239619,2.61293388 44.3739702,2.31288406 44.3739702,2.07534461 C44.3739702,1.68778026 44.336464,1.62526988 44.0739204,1.62526988 C43.7988748,1.62526988 43.7488665,1.70028233 43.673854,2.1878633 C43.6363478,2.5004152 43.6238457,2.82546917 43.673854,2.93798785 C43.7613685,3.16302522 44.0864225,3.05050654 44.2489495,2.73795464 Z" id="Shape" transform="translate(80.000000, 3.430919) scale(-1, 1) rotate(-180.000000) translate(-80.000000, -3.430919) "></path>
        </g>
    </g>
</svg>